<mxfile host="app.diagrams.net" modified="2023-03-14T11:32:43.738Z" agent="5.0 (Windows NT 10.0; Win64; x64) AppleWebKit/537.36 (KHTML, like Gecko) Chrome/111.0.0.0 Safari/537.36" etag="2-MouSeLUrEp4QwVMsbL" version="21.0.6" type="github">
  <diagram id="C5RBs43oDa-KdzZeNtuy" name="Page-1">
    <mxGraphModel dx="1093" dy="583" grid="1" gridSize="10" guides="1" tooltips="1" connect="1" arrows="1" fold="1" page="1" pageScale="1" pageWidth="827" pageHeight="1169" math="0" shadow="0">
      <root>
        <mxCell id="WIyWlLk6GJQsqaUBKTNV-0" />
        <mxCell id="WIyWlLk6GJQsqaUBKTNV-1" parent="WIyWlLk6GJQsqaUBKTNV-0" />
        <mxCell id="WIyWlLk6GJQsqaUBKTNV-2" value="" style="rounded=0;html=1;jettySize=auto;orthogonalLoop=1;fontSize=11;endArrow=block;endFill=0;endSize=8;strokeWidth=1;shadow=0;labelBackgroundColor=none;edgeStyle=orthogonalEdgeStyle;entryX=0.5;entryY=0;entryDx=0;entryDy=0;" parent="WIyWlLk6GJQsqaUBKTNV-1" source="WIyWlLk6GJQsqaUBKTNV-3" target="iWK1rPFehf37iBnxXy8q-0" edge="1">
          <mxGeometry relative="1" as="geometry" />
        </mxCell>
        <mxCell id="WIyWlLk6GJQsqaUBKTNV-3" value="start" style="rounded=1;whiteSpace=wrap;html=1;fontSize=12;glass=0;strokeWidth=1;shadow=0;" parent="WIyWlLk6GJQsqaUBKTNV-1" vertex="1">
          <mxGeometry x="260" y="30" width="120" height="40" as="geometry" />
        </mxCell>
        <mxCell id="iWK1rPFehf37iBnxXy8q-5" style="edgeStyle=orthogonalEdgeStyle;rounded=0;orthogonalLoop=1;jettySize=auto;html=1;exitX=0;exitY=0.5;exitDx=0;exitDy=0;entryX=0.5;entryY=0;entryDx=0;entryDy=0;" edge="1" parent="WIyWlLk6GJQsqaUBKTNV-1" source="WIyWlLk6GJQsqaUBKTNV-6" target="iWK1rPFehf37iBnxXy8q-3">
          <mxGeometry relative="1" as="geometry" />
        </mxCell>
        <mxCell id="iWK1rPFehf37iBnxXy8q-6" style="edgeStyle=orthogonalEdgeStyle;rounded=0;orthogonalLoop=1;jettySize=auto;html=1;exitX=1;exitY=0.5;exitDx=0;exitDy=0;entryX=0.5;entryY=0;entryDx=0;entryDy=0;" edge="1" parent="WIyWlLk6GJQsqaUBKTNV-1" source="WIyWlLk6GJQsqaUBKTNV-6" target="iWK1rPFehf37iBnxXy8q-4">
          <mxGeometry relative="1" as="geometry" />
        </mxCell>
        <mxCell id="iWK1rPFehf37iBnxXy8q-12" value="" style="edgeStyle=orthogonalEdgeStyle;rounded=0;orthogonalLoop=1;jettySize=auto;html=1;" edge="1" parent="WIyWlLk6GJQsqaUBKTNV-1" source="WIyWlLk6GJQsqaUBKTNV-6">
          <mxGeometry relative="1" as="geometry">
            <mxPoint x="320" y="390" as="targetPoint" />
          </mxGeometry>
        </mxCell>
        <mxCell id="WIyWlLk6GJQsqaUBKTNV-6" value="difficulty" style="rhombus;whiteSpace=wrap;html=1;shadow=0;fontFamily=Helvetica;fontSize=12;align=center;strokeWidth=1;spacing=6;spacingTop=-4;" parent="WIyWlLk6GJQsqaUBKTNV-1" vertex="1">
          <mxGeometry x="270" y="230" width="100" height="80" as="geometry" />
        </mxCell>
        <mxCell id="iWK1rPFehf37iBnxXy8q-2" style="edgeStyle=orthogonalEdgeStyle;rounded=0;orthogonalLoop=1;jettySize=auto;html=1;exitX=0.5;exitY=1;exitDx=0;exitDy=0;" edge="1" parent="WIyWlLk6GJQsqaUBKTNV-1" source="iWK1rPFehf37iBnxXy8q-0" target="WIyWlLk6GJQsqaUBKTNV-6">
          <mxGeometry relative="1" as="geometry" />
        </mxCell>
        <mxCell id="iWK1rPFehf37iBnxXy8q-0" value="Assign a random number&amp;nbsp;&lt;br&gt;between 1-100" style="rounded=1;whiteSpace=wrap;html=1;" vertex="1" parent="WIyWlLk6GJQsqaUBKTNV-1">
          <mxGeometry x="260" y="120" width="120" height="60" as="geometry" />
        </mxCell>
        <mxCell id="iWK1rPFehf37iBnxXy8q-3" value="easy" style="rounded=1;whiteSpace=wrap;html=1;" vertex="1" parent="WIyWlLk6GJQsqaUBKTNV-1">
          <mxGeometry x="200" y="310" width="80" height="40" as="geometry" />
        </mxCell>
        <mxCell id="iWK1rPFehf37iBnxXy8q-4" value="hard" style="rounded=1;whiteSpace=wrap;html=1;" vertex="1" parent="WIyWlLk6GJQsqaUBKTNV-1">
          <mxGeometry x="360" y="310" width="80" height="40" as="geometry" />
        </mxCell>
        <mxCell id="iWK1rPFehf37iBnxXy8q-7" value="answer = 34" style="rounded=0;whiteSpace=wrap;html=1;" vertex="1" parent="WIyWlLk6GJQsqaUBKTNV-1">
          <mxGeometry x="40" y="135" width="120" height="30" as="geometry" />
        </mxCell>
        <mxCell id="iWK1rPFehf37iBnxXy8q-9" value="attempt = 5" style="rounded=0;whiteSpace=wrap;html=1;" vertex="1" parent="WIyWlLk6GJQsqaUBKTNV-1">
          <mxGeometry x="40" y="315" width="120" height="30" as="geometry" />
        </mxCell>
        <mxCell id="iWK1rPFehf37iBnxXy8q-10" value="attempt = 10" style="rounded=0;whiteSpace=wrap;html=1;" vertex="1" parent="WIyWlLk6GJQsqaUBKTNV-1">
          <mxGeometry x="480" y="315" width="120" height="30" as="geometry" />
        </mxCell>
        <mxCell id="iWK1rPFehf37iBnxXy8q-18" style="edgeStyle=orthogonalEdgeStyle;rounded=0;orthogonalLoop=1;jettySize=auto;html=1;exitX=0.5;exitY=1;exitDx=0;exitDy=0;entryX=0.5;entryY=0;entryDx=0;entryDy=0;" edge="1" parent="WIyWlLk6GJQsqaUBKTNV-1" source="iWK1rPFehf37iBnxXy8q-15" target="iWK1rPFehf37iBnxXy8q-16">
          <mxGeometry relative="1" as="geometry" />
        </mxCell>
        <mxCell id="iWK1rPFehf37iBnxXy8q-26" style="edgeStyle=orthogonalEdgeStyle;rounded=0;orthogonalLoop=1;jettySize=auto;html=1;exitX=0.5;exitY=1;exitDx=0;exitDy=0;entryX=0.5;entryY=0;entryDx=0;entryDy=0;" edge="1" parent="WIyWlLk6GJQsqaUBKTNV-1" source="iWK1rPFehf37iBnxXy8q-15" target="iWK1rPFehf37iBnxXy8q-25">
          <mxGeometry relative="1" as="geometry" />
        </mxCell>
        <mxCell id="iWK1rPFehf37iBnxXy8q-15" value="make a guess" style="rounded=1;whiteSpace=wrap;html=1;" vertex="1" parent="WIyWlLk6GJQsqaUBKTNV-1">
          <mxGeometry x="280" y="460" width="80" height="40" as="geometry" />
        </mxCell>
        <mxCell id="iWK1rPFehf37iBnxXy8q-20" value="" style="edgeStyle=orthogonalEdgeStyle;rounded=0;orthogonalLoop=1;jettySize=auto;html=1;" edge="1" parent="WIyWlLk6GJQsqaUBKTNV-1" source="iWK1rPFehf37iBnxXy8q-16" target="iWK1rPFehf37iBnxXy8q-19">
          <mxGeometry relative="1" as="geometry" />
        </mxCell>
        <mxCell id="iWK1rPFehf37iBnxXy8q-28" style="edgeStyle=orthogonalEdgeStyle;rounded=0;orthogonalLoop=1;jettySize=auto;html=1;exitX=0.5;exitY=1;exitDx=0;exitDy=0;entryX=0.5;entryY=0;entryDx=0;entryDy=0;" edge="1" parent="WIyWlLk6GJQsqaUBKTNV-1" source="iWK1rPFehf37iBnxXy8q-16" target="iWK1rPFehf37iBnxXy8q-27">
          <mxGeometry relative="1" as="geometry" />
        </mxCell>
        <mxCell id="iWK1rPFehf37iBnxXy8q-16" value="guess_no == answer" style="rhombus;whiteSpace=wrap;html=1;" vertex="1" parent="WIyWlLk6GJQsqaUBKTNV-1">
          <mxGeometry x="250" y="590" width="140" height="80" as="geometry" />
        </mxCell>
        <mxCell id="iWK1rPFehf37iBnxXy8q-17" value="guess_no = 50" style="rounded=0;whiteSpace=wrap;html=1;" vertex="1" parent="WIyWlLk6GJQsqaUBKTNV-1">
          <mxGeometry x="40" y="390" width="120" height="40" as="geometry" />
        </mxCell>
        <mxCell id="iWK1rPFehf37iBnxXy8q-19" value="win" style="rounded=1;whiteSpace=wrap;html=1;fillColor=#d5e8d4;strokeColor=#82b366;" vertex="1" parent="WIyWlLk6GJQsqaUBKTNV-1">
          <mxGeometry x="480" y="615" width="50" height="30" as="geometry" />
        </mxCell>
        <mxCell id="iWK1rPFehf37iBnxXy8q-23" style="edgeStyle=orthogonalEdgeStyle;rounded=0;orthogonalLoop=1;jettySize=auto;html=1;exitX=0.5;exitY=1;exitDx=0;exitDy=0;entryX=0.5;entryY=0;entryDx=0;entryDy=0;" edge="1" parent="WIyWlLk6GJQsqaUBKTNV-1" source="iWK1rPFehf37iBnxXy8q-22" target="iWK1rPFehf37iBnxXy8q-15">
          <mxGeometry relative="1" as="geometry" />
        </mxCell>
        <mxCell id="iWK1rPFehf37iBnxXy8q-22" value="you have __ attempt" style="rounded=1;whiteSpace=wrap;html=1;" vertex="1" parent="WIyWlLk6GJQsqaUBKTNV-1">
          <mxGeometry x="240" y="390" width="160" height="40" as="geometry" />
        </mxCell>
        <mxCell id="iWK1rPFehf37iBnxXy8q-25" value="attempt -= 1" style="rounded=1;whiteSpace=wrap;html=1;" vertex="1" parent="WIyWlLk6GJQsqaUBKTNV-1">
          <mxGeometry x="280" y="520" width="80" height="40" as="geometry" />
        </mxCell>
        <mxCell id="iWK1rPFehf37iBnxXy8q-32" style="edgeStyle=orthogonalEdgeStyle;rounded=0;orthogonalLoop=1;jettySize=auto;html=1;entryX=0.5;entryY=0;entryDx=0;entryDy=0;" edge="1" parent="WIyWlLk6GJQsqaUBKTNV-1" source="iWK1rPFehf37iBnxXy8q-27" target="iWK1rPFehf37iBnxXy8q-30">
          <mxGeometry relative="1" as="geometry" />
        </mxCell>
        <mxCell id="iWK1rPFehf37iBnxXy8q-33" style="edgeStyle=orthogonalEdgeStyle;rounded=0;orthogonalLoop=1;jettySize=auto;html=1;" edge="1" parent="WIyWlLk6GJQsqaUBKTNV-1" source="iWK1rPFehf37iBnxXy8q-27" target="iWK1rPFehf37iBnxXy8q-29">
          <mxGeometry relative="1" as="geometry" />
        </mxCell>
        <mxCell id="iWK1rPFehf37iBnxXy8q-27" value="guess_no &amp;gt; answer" style="rhombus;whiteSpace=wrap;html=1;" vertex="1" parent="WIyWlLk6GJQsqaUBKTNV-1">
          <mxGeometry x="250" y="710" width="140" height="80" as="geometry" />
        </mxCell>
        <mxCell id="iWK1rPFehf37iBnxXy8q-39" style="edgeStyle=orthogonalEdgeStyle;rounded=0;orthogonalLoop=1;jettySize=auto;html=1;exitX=1;exitY=0.5;exitDx=0;exitDy=0;entryX=0;entryY=0.5;entryDx=0;entryDy=0;" edge="1" parent="WIyWlLk6GJQsqaUBKTNV-1" source="iWK1rPFehf37iBnxXy8q-29" target="iWK1rPFehf37iBnxXy8q-36">
          <mxGeometry relative="1" as="geometry">
            <Array as="points">
              <mxPoint x="530" y="750" />
              <mxPoint x="530" y="800" />
            </Array>
          </mxGeometry>
        </mxCell>
        <mxCell id="iWK1rPFehf37iBnxXy8q-29" value="Too low" style="rounded=1;whiteSpace=wrap;html=1;" vertex="1" parent="WIyWlLk6GJQsqaUBKTNV-1">
          <mxGeometry x="440" y="735" width="70" height="30" as="geometry" />
        </mxCell>
        <mxCell id="iWK1rPFehf37iBnxXy8q-34" style="edgeStyle=orthogonalEdgeStyle;rounded=0;orthogonalLoop=1;jettySize=auto;html=1;exitX=1;exitY=0.5;exitDx=0;exitDy=0;" edge="1" parent="WIyWlLk6GJQsqaUBKTNV-1" source="iWK1rPFehf37iBnxXy8q-30" target="iWK1rPFehf37iBnxXy8q-31">
          <mxGeometry relative="1" as="geometry" />
        </mxCell>
        <mxCell id="iWK1rPFehf37iBnxXy8q-30" value="guess_no &amp;lt; answer" style="rhombus;whiteSpace=wrap;html=1;" vertex="1" parent="WIyWlLk6GJQsqaUBKTNV-1">
          <mxGeometry x="250" y="830" width="140" height="80" as="geometry" />
        </mxCell>
        <mxCell id="iWK1rPFehf37iBnxXy8q-40" style="edgeStyle=orthogonalEdgeStyle;rounded=0;orthogonalLoop=1;jettySize=auto;html=1;exitX=1;exitY=0.5;exitDx=0;exitDy=0;" edge="1" parent="WIyWlLk6GJQsqaUBKTNV-1" source="iWK1rPFehf37iBnxXy8q-31">
          <mxGeometry relative="1" as="geometry">
            <mxPoint x="560" y="800" as="targetPoint" />
            <Array as="points">
              <mxPoint x="530" y="870" />
              <mxPoint x="530" y="800" />
            </Array>
          </mxGeometry>
        </mxCell>
        <mxCell id="iWK1rPFehf37iBnxXy8q-31" value="Too high" style="rounded=1;whiteSpace=wrap;html=1;" vertex="1" parent="WIyWlLk6GJQsqaUBKTNV-1">
          <mxGeometry x="440" y="855" width="70" height="30" as="geometry" />
        </mxCell>
        <mxCell id="iWK1rPFehf37iBnxXy8q-42" value="" style="edgeStyle=orthogonalEdgeStyle;rounded=0;orthogonalLoop=1;jettySize=auto;html=1;" edge="1" parent="WIyWlLk6GJQsqaUBKTNV-1" source="iWK1rPFehf37iBnxXy8q-36" target="iWK1rPFehf37iBnxXy8q-41">
          <mxGeometry relative="1" as="geometry" />
        </mxCell>
        <mxCell id="iWK1rPFehf37iBnxXy8q-46" style="edgeStyle=orthogonalEdgeStyle;rounded=0;orthogonalLoop=1;jettySize=auto;html=1;exitX=1;exitY=0.5;exitDx=0;exitDy=0;" edge="1" parent="WIyWlLk6GJQsqaUBKTNV-1" source="iWK1rPFehf37iBnxXy8q-36" target="iWK1rPFehf37iBnxXy8q-45">
          <mxGeometry relative="1" as="geometry" />
        </mxCell>
        <mxCell id="iWK1rPFehf37iBnxXy8q-36" value="check attempt" style="rhombus;whiteSpace=wrap;html=1;" vertex="1" parent="WIyWlLk6GJQsqaUBKTNV-1">
          <mxGeometry x="560" y="760" width="100" height="80" as="geometry" />
        </mxCell>
        <mxCell id="iWK1rPFehf37iBnxXy8q-44" value="" style="edgeStyle=orthogonalEdgeStyle;rounded=0;orthogonalLoop=1;jettySize=auto;html=1;" edge="1" parent="WIyWlLk6GJQsqaUBKTNV-1" source="iWK1rPFehf37iBnxXy8q-41" target="iWK1rPFehf37iBnxXy8q-43">
          <mxGeometry relative="1" as="geometry" />
        </mxCell>
        <mxCell id="iWK1rPFehf37iBnxXy8q-41" value="attempt == 0" style="rounded=1;whiteSpace=wrap;html=1;" vertex="1" parent="WIyWlLk6GJQsqaUBKTNV-1">
          <mxGeometry x="550" y="930" width="120" height="60" as="geometry" />
        </mxCell>
        <mxCell id="iWK1rPFehf37iBnxXy8q-43" value="lose" style="rounded=1;whiteSpace=wrap;html=1;fillColor=#f8cecc;strokeColor=#b85450;" vertex="1" parent="WIyWlLk6GJQsqaUBKTNV-1">
          <mxGeometry x="570" y="1020" width="80" height="30" as="geometry" />
        </mxCell>
        <mxCell id="iWK1rPFehf37iBnxXy8q-47" style="edgeStyle=orthogonalEdgeStyle;rounded=0;orthogonalLoop=1;jettySize=auto;html=1;exitX=0.5;exitY=0;exitDx=0;exitDy=0;entryX=1;entryY=0.5;entryDx=0;entryDy=0;" edge="1" parent="WIyWlLk6GJQsqaUBKTNV-1" source="iWK1rPFehf37iBnxXy8q-45" target="iWK1rPFehf37iBnxXy8q-15">
          <mxGeometry relative="1" as="geometry" />
        </mxCell>
        <mxCell id="iWK1rPFehf37iBnxXy8q-45" value="attempt &amp;gt; 0" style="rounded=1;whiteSpace=wrap;html=1;" vertex="1" parent="WIyWlLk6GJQsqaUBKTNV-1">
          <mxGeometry x="680" y="770" width="120" height="60" as="geometry" />
        </mxCell>
      </root>
    </mxGraphModel>
  </diagram>
</mxfile>
